<svg xmlns="http://www.w3.org/2000/svg" width="760" height="760" viewBox="0 0 760 760" fill="none"><g stroke="#25b7ff" stroke-opacity=".28" stroke-width="2"><path d="M4 92h96l52 52h86l45 45h115l50-50h180"/><path d="M0 174h62l66 66h140l40 40h185l60-60h170"/><path d="M8 300h90l55 55h80l66 66h127l62-62h236"/><path d="M15 455h83l48-48h95l80 80h138l45-45h218"/><path d="M5 610h102l42-42h135l52 52h152l68-68h176"/><path d="M135 0v82l38 38M265 0v125l54 54M480 0v92l-37 37M620 0v160l-46 46M95 760V645l52-52M310 760V640l-46-46M515 760V618l51-51M685 760V605l-55-55"/></g><g fill="#26c6ff" fill-opacity=".45"><circle cx="100" cy="92" r="5"/><circle cx="238" cy="144" r="5"/><circle cx="398" cy="189" r="5"/><circle cx="62" cy="174" r="5"/><circle cx="268" cy="240" r="5"/><circle cx="493" cy="280" r="5"/><circle cx="98" cy="300" r="5"/><circle cx="233" cy="355" r="5"/><circle cx="426" cy="421" r="5"/><circle cx="98" cy="455" r="5"/><circle cx="241" cy="407" r="5"/><circle cx="459" cy="487" r="5"/><circle cx="107" cy="610" r="5"/><circle cx="284" cy="568" r="5"/><circle cx="488" cy="620" r="5"/></g></svg>