<svg xmlns="http://www.w3.org/2000/svg" width="1200" height="800" viewBox="0 0 1200 800"><defs><linearGradient id="b" x1="0" y1="0" x2="1" y2="1"><stop stop-color="#041222"/><stop offset="1" stop-color="#12395d"/></linearGradient><linearGradient id="s" x1="0" y1="0" x2="0" y2="1"><stop stop-color="#ffdb5c"/><stop offset="1" stop-color="#ff8600"/></linearGradient></defs><rect width="1200" height="800" fill="url(#b)"/><circle cx="930" cy="155" r="84" fill="url(#s)"/><g stroke="#ffbf36" stroke-width="9"><path d="M930 28v-25M930 307v38M803 155h-43M1057 155h43M840 65l-31-31M1020 65l31-31"/></g><path d="M245 625 432 340h385l155 285Z" fill="#d8f1ff" stroke="#54c9ff" stroke-width="14"/><path d="m432 340 85-122h220l80 122Z" fill="#e8f8ff" stroke="#54c9ff" stroke-width="12"/><path d="m300 582 165-205h320l135 205Z" fill="#0a2942" stroke="#9be7ff" stroke-width="9"/><text x="70" y="105" fill="#fff" font-family="Arial" font-size="60" font-weight="700">SOLAR OVEN</text><text x="75" y="160" fill="#62d4ff" font-family="Arial" font-size="28">Thermal Energy • Sustainable Design</text></svg>