<svg xmlns="http://www.w3.org/2000/svg" width="1200" height="800" viewBox="0 0 1200 800">
<defs>
  <linearGradient id="g" x1="0" y1="0" x2="1" y2="1"><stop stop-color="#071426"/><stop offset="1" stop-color="#133b5f"/></linearGradient>
  <linearGradient id="sun" x1="0" y1="0" x2="0" y2="1"><stop stop-color="#ffd34d"/><stop offset="1" stop-color="#ff8a00"/></linearGradient>
</defs>
<rect width="1200" height="800" fill="url(#g)"/>
<circle cx="920" cy="170" r="90" fill="url(#sun)"/>
<g stroke="#ffbd2e" stroke-width="10" opacity=".9">
<line x1="920" y1="30" x2="920" y2="0"/><line x1="920" y1="340" x2="920" y2="380"/>
<line x1="780" y1="170" x2="730" y2="170"/><line x1="1060" y1="170" x2="1110" y2="170"/>
</g>
<path d="M250 610 L420 345 L825 345 L970 610 Z" fill="#d6e9f8" stroke="#65c7ff" stroke-width="14"/>
<path d="M420 345 L505 220 L745 220 L825 345 Z" fill="#d9f2ff" stroke="#65c7ff" stroke-width="12"/>
<path d="M292 575 L455 380 L790 380 L925 575 Z" fill="#102b43" stroke="#89dcff" stroke-width="9"/>
<path d="M455 380 L505 245 L745 245 L790 380 Z" fill="#eefbff" opacity=".55"/>
<text x="80" y="110" fill="#fff" font-family="Arial" font-size="58" font-weight="700">SOLAR OVEN</text>
<text x="84" y="168" fill="#65c7ff" font-family="Arial" font-size="29">Thermal Energy • Sustainable Design</text>
</svg>